<?xml version="1.0" encoding="utf-8"?>
<!-- Generator: Adobe Illustrator 24.0.1, SVG Export Plug-In . SVG Version: 6.00 Build 0)  -->
<svg version="1.1" id="Capa_1" xmlns="http://www.w3.org/2000/svg" xmlns:xlink="http://www.w3.org/1999/xlink" x="0px" y="0px"
	 viewBox="0 0 452.5 452.5" style="enable-background:new 0 0 452.5 452.5;" xml:space="preserve">
<style type="text/css">
	.st0{fill:#666666;}
</style>
<g>
	<g>
		<g>
			<path class="st0" d="M116.1,270.3c0,7.8-6.3,14-14,14H14c-7.8,0-14-6.3-14-14v-88c0-7.8,6.3-14,14-14h88c7.8,0,14,6.3,14,14
				C116.1,182.3,116.1,270.3,116.1,270.3z"/>
		</g>
		<g>
			<path class="st0" d="M452.5,270.3c0,7.8-6.3,14-14,14h-88c-7.8,0-14-6.3-14-14v-88c0-7.8,6.3-14,14-14h88c7.8,0,14,6.3,14,14
				V270.3z"/>
		</g>
	</g>
	<g>
		<path class="st0" d="M270.3,2.3h-88c-7.7,0-14,6.3-14,14v88c0,7.8,6.3,14,14,14h88c7.7,0,14-6.3,14-14v-88
			C284.3,8.6,278,2.3,270.3,2.3z"/>
		<path class="st0" d="M102,2.3H14c-7.8,0-14,6.3-14,14v88c0,7.8,6.3,14,14,14h88c7.8,0,14-6.3,14-14v-88
			C116.1,8.6,109.8,2.3,102,2.3z"/>
		<path class="st0" d="M438.5,2.3h-88c-7.8,0-14,6.3-14,14v88c0,7.8,6.3,14,14,14h88c7.8,0,14-6.3,14-14v-88
			C452.5,8.6,446.3,2.3,438.5,2.3z"/>
		<path class="st0" d="M270.3,168.2h-88c-7.7,0-14,6.3-14,14v88c0,7.8,6.3,14,14,14h88c7.7,0,14-6.3,14-14v-88
			C284.3,174.5,278,168.2,270.3,168.2z"/>
		<path class="st0" d="M270.3,334.2h-88c-7.7,0-14,6.3-14,14v88c0,7.8,6.3,14,14,14h88c7.7,0,14-6.3,14-14v-88
			C284.3,340.5,278,334.2,270.3,334.2z"/>
	</g>
	<g>
		<g>
			<path class="st0" d="M116.1,436.2c0,7.8-6.3,14-14,14H14c-7.8,0-14-6.3-14-14v-88c0-7.8,6.3-14,14-14h88c7.8,0,14,6.3,14,14
				C116.1,348.2,116.1,436.2,116.1,436.2z"/>
		</g>
		<g>
			<path class="st0" d="M452.5,436.2c0,7.8-6.3,14-14,14h-88c-7.8,0-14-6.3-14-14v-88c0-7.8,6.3-14,14-14h88c7.8,0,14,6.3,14,14
				V436.2z"/>
		</g>
	</g>
</g>
</svg>
